# xmcd
#
# Track frame offsets: 
#        150
#        18398
#        33097
#        51147
#        65160
#        79900
#        94472
#        105642
#        120739
#        137545
#        149674
#        163193
#        181031
#        198724
#        213108
#        230165
#        243581
#        257653
#
# Disc length: 3622 seconds
#
# Revision: 0
# Processed by: cddbd v1.5.2PL0 Copyright (c) Steve Scherf et al.
# Submitted via: ExactAudioCopy v0.99pb5
#
DISCID=0a0e2412
DTITLE=Various Artist - Surf Sound Organic Style
DYEAR=2009
DGENRE=Acoustic
TTITLE0=Jason Mraz - I'm Yours
TTITLE1=Natty - Batman
TTITLE2=Eric Hutchinson - Rock and Roll
TTITLE3=Donavon Frankenreiter - It Don't Matter
TTITLE4=Colbie Caillat - Bubbly
TTITLE5=G. Love - Rainbow
TTITLE6=The Fifthe Avenue Band - One Way or The Pther
TTITLE7=Paolo Nutini - New Shoes
TTITLE8=John Butler Trio - Betterman
TTITLE9=Newton Faulkner - To The Light
TTITLE10=Son Volt - Windfall
TTITLE11=Hirth Martinez - Altogether Alone
TTITLE12=Linda Ronstadt - Blue Bayou
TTITLE13=Pico - Me and You
TTITLE14=Jason Reeeves - Happy Accident
TTITLE15=Beau Young - We've Got It Made
TTITLE16=Danny Kortchmar - For Sentimental Reasons
TTITLE17=Yuuichi Ohata - Girl's Calypso
EXTD=
EXTT0=
EXTT1=
EXTT2=
EXTT3=
EXTT4=
EXTT5=
EXTT6=
EXTT7=
EXTT8=
EXTT9=
EXTT10=
EXTT11=
EXTT12=
EXTT13=
EXTT14=
EXTT15=
EXTT16=
EXTT17=
PLAYORDER=
